<svg width="52" height="52" viewBox="0 0 52 52" fill="none" xmlns="http://www.w3.org/2000/svg">
<path d="M2 26C2 12.7452 12.7452 2 26 2C39.2548 2 50 12.7452 50 26C50 39.2548 39.2548 50 26 50C12.7452 50 2 39.2548 2 26Z" fill="white"/>
<path d="M18 16C16.8954 16 16 16.8954 16 18V23C16 24.1046 16.8954 25 18 25H23C24.1046 25 25 24.1046 25 23V18C25 16.8954 24.1046 16 23 16H18Z" fill="#1990FF"/>
<path d="M18 27C16.8954 27 16 27.8954 16 29V34C16 35.1046 16.8954 36 18 36H23C24.1046 36 25 35.1046 25 34V29C25 27.8954 24.1046 27 23 27H18Z" fill="#1990FF"/>
<path d="M27 18C27 16.8954 27.8954 16 29 16H34C35.1046 16 36 16.8954 36 18V23C36 24.1046 35.1046 25 34 25H29C27.8954 25 27 24.1046 27 23V18Z" fill="#1990FF"/>
<path d="M29 27C27.8954 27 27 27.8954 27 29V34C27 35.1046 27.8954 36 29 36H34C35.1046 36 36 35.1046 36 34V29C36 27.8954 35.1046 27 34 27H29Z" fill="#1990FF"/>
<path d="M26 49C13.2975 49 3 38.7025 3 26H1C1 39.8071 12.1929 51 26 51V49ZM49 26C49 38.7025 38.7025 49 26 49V51C39.8071 51 51 39.8071 51 26H49ZM26 3C38.7025 3 49 13.2975 49 26H51C51 12.1929 39.8071 1 26 1V3ZM26 1C12.1929 1 1 12.1929 1 26H3C3 13.2975 13.2975 3 26 3V1Z" fill="#1990FF"/>
</svg>
