<svg width="696" height="520" viewBox="0 0 696 520" fill="none" xmlns="http://www.w3.org/2000/svg">
<path fill-rule="evenodd" clip-rule="evenodd" d="M545.632 516C583.308 471.153 606 413.298 606 350.143C606 207.653 490.489 92.1428 348 92.1428C205.511 92.1428 90 207.653 90 350.143C90 413.298 112.692 471.153 150.368 516H545.632Z" fill="#F0F3FD"/>
<g opacity="0.15">
<path fill-rule="evenodd" clip-rule="evenodd" d="M450.476 278.484C450.194 278.818 450.011 279.225 449.948 279.658L441.655 336.1C441.5 337.157 442.076 338.186 443.058 338.607L450.476 341.787C450.591 341.836 450.706 341.875 450.822 341.905C451.137 341.987 451.404 342.243 451.404 342.568V359.98C451.404 360.631 451.932 361.158 452.582 361.158C453.233 361.158 453.76 360.631 453.76 359.98V339.634C453.76 339.63 453.76 339.626 453.76 339.621L453.76 326.997L453.76 276.194C453.76 275.644 453.074 275.394 452.72 275.815L450.476 278.484Z" fill="#A4A4A4"/>
<path fill-rule="evenodd" clip-rule="evenodd" d="M450.476 277.306C450.194 277.64 450.011 278.047 449.948 278.48L441.655 334.922C441.5 335.979 442.076 337.009 443.058 337.43L450.476 340.609C450.591 340.658 450.706 340.697 450.822 340.727C451.137 340.809 451.404 341.065 451.404 341.39V358.802C451.404 359.453 451.932 359.98 452.582 359.98C453.233 359.98 453.76 359.453 453.76 358.802V338.456C453.76 338.452 453.76 338.448 453.76 338.443L453.76 325.819L453.76 275.016C453.76 274.466 453.074 274.216 452.72 274.637L450.476 277.306Z" fill="#C4C4C4"/>
<path fill-rule="evenodd" clip-rule="evenodd" d="M383.686 401.806C384.116 401.882 384.56 401.837 384.966 401.676L437.993 380.636C438.986 380.242 439.59 379.229 439.463 378.168L438.507 370.154C438.493 370.03 438.469 369.91 438.437 369.795C438.35 369.482 438.439 369.122 438.72 368.959L453.799 360.253C454.363 359.928 454.556 359.208 454.23 358.644C453.905 358.081 453.185 357.888 452.621 358.213L435.001 368.386C434.997 368.388 434.994 368.39 434.99 368.392L424.057 374.704L380.06 400.106C379.584 400.381 379.711 401.1 380.252 401.196L383.686 401.806Z" fill="#A4A4A4"/>
<path fill-rule="evenodd" clip-rule="evenodd" d="M383.096 401.217C383.527 401.293 383.97 401.248 384.377 401.087L437.403 380.048C438.397 379.653 439.001 378.64 438.874 377.579L437.918 369.565C437.903 369.441 437.88 369.321 437.848 369.206C437.761 368.893 437.849 368.533 438.131 368.37L453.21 359.664C453.773 359.339 453.966 358.619 453.641 358.055C453.316 357.492 452.595 357.299 452.032 357.624L434.414 367.796C434.409 367.799 434.405 367.801 434.401 367.803L379.471 399.517C378.995 399.792 379.121 400.511 379.662 400.607L383.096 401.217Z" fill="#C4C4C4"/>
<path fill-rule="evenodd" clip-rule="evenodd" d="M524.644 398.965C524.495 398.554 524.235 398.192 523.892 397.921L479.158 362.518C478.32 361.855 477.14 361.839 476.284 362.479L469.822 367.314C469.722 367.389 469.631 367.469 469.547 367.554C469.319 367.786 468.963 367.889 468.681 367.727L453.602 359.021C453.039 358.696 452.318 358.889 451.993 359.452C451.668 360.016 451.861 360.736 452.424 361.061L470.049 371.237C470.051 371.238 470.053 371.24 470.055 371.241L480.988 377.553L524.985 402.954C525.461 403.229 526.021 402.76 525.834 402.244L524.644 398.965Z" fill="#A4A4A4"/>
<path fill-rule="evenodd" clip-rule="evenodd" d="M524.644 397.787C524.495 397.376 524.235 397.014 523.892 396.743L479.158 361.34C478.32 360.677 477.14 360.661 476.284 361.301L469.822 366.136C469.722 366.211 469.631 366.291 469.547 366.376C469.319 366.608 468.963 366.712 468.681 366.549L453.602 357.843C453.039 357.518 452.318 357.711 451.993 358.274C451.668 358.838 451.861 359.558 452.424 359.883L480.988 376.375C480.99 376.376 480.993 376.377 480.995 376.379L524.985 401.777C525.461 402.051 526.021 401.582 525.834 401.066L524.644 397.787Z" fill="#C4C4C4"/>
<path fill-rule="evenodd" clip-rule="evenodd" d="M455.61 363.573C457.293 362.854 458.472 361.184 458.472 359.238C458.472 356.636 456.362 354.526 453.76 354.526C451.158 354.526 449.048 356.636 449.048 359.238C449.048 361.184 450.227 362.854 451.91 363.573L442.569 519.44H464.95L455.61 363.573Z" fill="#A4A4A4"/>
<path fill-rule="evenodd" clip-rule="evenodd" d="M454.432 363.573C456.115 362.854 457.294 361.184 457.294 359.238C457.294 356.636 455.184 354.526 452.582 354.526C449.98 354.526 447.87 356.636 447.87 359.238C447.87 361.184 449.049 362.854 450.732 363.573L441.392 519.44H463.773L454.432 363.573Z" fill="#C4C4C4"/>
</g>
<g opacity="0.6">
<rect x="96.8799" y="302.72" width="45.9478" height="108.354" rx="22.9739" fill="#E9EBF2"/>
<rect x="118.825" y="346.61" width="2.74315" height="169.39" rx="1.37158" fill="#E1E2E5"/>
<rect x="130.142" y="352.633" width="2.74315" height="23.122" rx="1.37158" transform="rotate(30 130.142 352.633)" fill="#E1E2E5"/>
<rect width="2.74315" height="32.5301" rx="1.37158" transform="matrix(0.866025 -0.5 -0.5 -0.866025 119.585 389.563)" fill="#E1E2E5"/>
</g>
<rect x="157.08" y="213.28" width="65.7029" height="154.941" rx="32.8514" fill="#E9EBF2"/>
<rect x="188.46" y="276.041" width="3.92256" height="242.218" rx="1.96128" fill="#E1E2E5"/>
<rect x="204.643" y="284.654" width="3.92256" height="33.0633" rx="1.96128" transform="rotate(30 204.643 284.654)" fill="#E1E2E5"/>
<rect width="3.92256" height="46.5163" rx="1.96128" transform="matrix(0.866025 -0.5 -0.5 -0.866025 189.548 337.461)" fill="#E1E2E5"/>
<path opacity="0.8" fill-rule="evenodd" clip-rule="evenodd" d="M244.8 177.043C244.8 177.162 244.799 177.28 244.796 177.397C252.171 177.581 258.094 183.617 258.094 191.037C258.094 198.455 252.173 204.49 244.8 204.676V204.68H244.45H217.513V204.676C217.397 204.679 217.28 204.68 217.163 204.68C209.628 204.68 203.52 198.572 203.52 191.037C203.52 183.502 209.628 177.393 217.163 177.393C217.282 177.393 217.4 177.395 217.518 177.398C217.515 177.28 217.513 177.162 217.513 177.043C217.513 169.508 223.622 163.4 231.157 163.4C238.692 163.4 244.8 169.508 244.8 177.043Z" fill="white"/>
<path opacity="0.6" fill-rule="evenodd" clip-rule="evenodd" d="M496.096 218.264C496.096 218.323 496.096 218.383 496.094 218.442C499.813 218.535 502.8 221.579 502.8 225.32C502.8 229.061 499.814 232.104 496.096 232.198V232.2H495.933C495.929 232.2 495.924 232.2 495.92 232.2C495.915 232.2 495.911 232.2 495.906 232.2H482.336V232.198C482.278 232.199 482.219 232.2 482.16 232.2C478.36 232.2 475.28 229.12 475.28 225.32C475.28 221.52 478.36 218.44 482.16 218.44C482.22 218.44 482.279 218.441 482.339 218.442C482.337 218.383 482.336 218.323 482.336 218.264C482.336 214.464 485.417 211.384 489.216 211.384C493.016 211.384 496.096 214.464 496.096 218.264Z" fill="white"/>
<path fill-rule="evenodd" clip-rule="evenodd" d="M381.024 139.024C381.024 126.839 390.903 116.96 403.089 116.96C412.131 116.96 419.904 122.4 423.311 130.186C425.504 128.635 428.182 127.723 431.073 127.723C437.873 127.723 443.495 132.768 444.399 139.32H449.446C455.62 139.32 460.626 144.325 460.626 150.5C460.626 156.675 455.62 161.68 449.446 161.68H383.26C377.086 161.68 372.08 156.675 372.08 150.5C372.08 145.089 375.924 140.576 381.03 139.542C381.026 139.37 381.024 139.198 381.024 139.024Z" fill="white"/>
<path opacity="0.6" fill-rule="evenodd" clip-rule="evenodd" d="M229.528 285.921C229.528 280.95 233.558 276.92 238.529 276.92C242.218 276.92 245.388 279.139 246.778 282.315C247.673 281.682 248.765 281.311 249.944 281.311C252.718 281.311 255.012 283.369 255.381 286.041H257.439C259.958 286.041 262 288.083 262 290.602C262 293.121 259.958 295.162 257.439 295.162H230.44C227.922 295.162 225.88 293.121 225.88 290.602C225.88 288.395 227.448 286.554 229.531 286.132C229.529 286.062 229.528 285.991 229.528 285.921Z" fill="white"/>
<path fill-rule="evenodd" clip-rule="evenodd" d="M546.456 140.541C546.014 141.068 545.726 141.707 545.626 142.387L532.586 231.141C532.342 232.804 533.248 234.423 534.792 235.085L546.457 240.084C546.637 240.161 546.819 240.223 547.001 240.27C547.496 240.398 547.917 240.802 547.917 241.313V268.693C547.917 269.715 548.746 270.545 549.769 270.545C550.792 270.545 551.621 269.715 551.621 268.693V236.71C551.621 236.7 551.621 236.689 551.621 236.679L551.621 136.94C551.621 136.076 550.543 135.683 549.986 136.344L546.456 140.541Z" fill="#DCDFE6"/>
<path fill-rule="evenodd" clip-rule="evenodd" d="M546.456 138.689C546.014 139.215 545.726 139.854 545.626 140.535L532.586 229.289C532.342 230.952 533.248 232.57 534.792 233.232L546.457 238.232C546.637 238.309 546.819 238.371 547.001 238.418C547.496 238.546 547.917 238.95 547.917 239.461V266.84C547.917 267.863 548.746 268.692 549.769 268.692C550.792 268.692 551.621 267.863 551.621 266.84V234.858C551.621 234.847 551.621 234.837 551.621 234.827L551.621 135.088C551.621 134.224 550.543 133.831 549.986 134.492L546.456 138.689Z" fill="#E9EBF2"/>
<path fill-rule="evenodd" clip-rule="evenodd" d="M441.431 334.463C442.108 334.583 442.805 334.512 443.444 334.258L526.828 301.174C528.39 300.555 529.339 298.961 529.14 297.292L527.637 284.69C527.614 284.496 527.576 284.308 527.526 284.127C527.39 283.634 527.529 283.068 527.972 282.812L551.683 269.122C552.569 268.611 552.872 267.478 552.361 266.592C551.849 265.706 550.717 265.403 549.831 265.914L522.121 281.912C522.116 281.915 522.111 281.918 522.106 281.921L504.915 291.846L435.73 331.79C434.981 332.222 435.18 333.353 436.031 333.504L441.431 334.463Z" fill="#DCDFE6"/>
<path fill-rule="evenodd" clip-rule="evenodd" d="M440.504 333.536C441.182 333.657 441.879 333.586 442.518 333.332L525.901 300.248C527.463 299.628 528.413 298.035 528.214 296.366L526.711 283.764C526.687 283.57 526.65 283.382 526.6 283.2C526.464 282.708 526.603 282.142 527.045 281.886L550.757 268.196C551.643 267.685 551.946 266.552 551.435 265.666C550.923 264.78 549.79 264.476 548.904 264.988L521.202 280.982C521.195 280.986 521.187 280.99 521.18 280.995L434.804 330.864C434.055 331.296 434.254 332.427 435.105 332.578L440.504 333.536Z" fill="#E9EBF2"/>
<path fill-rule="evenodd" clip-rule="evenodd" d="M663.086 329.996C662.851 329.349 662.442 328.781 661.902 328.354L591.559 272.684C590.241 271.641 588.387 271.616 587.041 272.623L576.879 280.225C576.722 280.343 576.578 280.469 576.446 280.603C576.087 280.967 575.528 281.13 575.085 280.874L551.374 267.185C550.488 266.673 549.355 266.977 548.843 267.863C548.332 268.749 548.635 269.881 549.521 270.393L577.221 286.385C577.229 286.39 577.237 286.395 577.246 286.4L663.622 336.269C664.37 336.701 665.25 335.964 664.956 335.151L663.086 329.996Z" fill="#DCDFE6"/>
<path fill-rule="evenodd" clip-rule="evenodd" d="M663.086 328.143C662.851 327.497 662.442 326.928 661.902 326.502L591.559 270.832C590.241 269.789 588.387 269.764 587.041 270.77L576.879 278.373C576.722 278.49 576.578 278.617 576.446 278.751C576.087 279.115 575.528 279.278 575.085 279.022L551.374 265.332C550.488 264.821 549.355 265.124 548.843 266.01C548.332 266.896 548.635 268.029 549.521 268.541L577.224 284.535C577.231 284.539 577.239 284.543 577.246 284.547L663.622 334.417C664.37 334.849 665.25 334.111 664.956 333.299L663.086 328.143Z" fill="#E9EBF2"/>
<path fill-rule="evenodd" clip-rule="evenodd" d="M554.531 274.342C557.177 273.212 559.031 270.585 559.031 267.526C559.031 263.434 555.713 260.117 551.621 260.117C547.529 260.117 544.212 263.434 544.212 267.526C544.212 270.585 546.066 273.212 548.712 274.342L534.024 519.44H569.218L554.531 274.342Z" fill="#DCDFE6"/>
<path fill-rule="evenodd" clip-rule="evenodd" d="M552.679 274.342C555.324 273.212 557.178 270.585 557.178 267.526C557.178 263.434 553.861 260.117 549.769 260.117C545.677 260.117 542.36 263.434 542.36 267.526C542.36 270.585 544.214 273.212 546.86 274.342L532.172 519.44H567.366L552.679 274.342Z" fill="#E9EBF2"/>
<path d="M571.439 514.28H552.624C530.825 514.28 540.23 507.802 545.744 506.546C533.417 502.149 542.5 493.866 548.731 497.321C544.838 482.246 558.139 485.386 560.734 493.866C565.924 485.072 575.007 489.469 569.493 498.891C578.9 494.808 578.9 502.974 575.007 505.486C584.415 507.057 579.157 510.001 573.967 510.001C580.13 513.455 575.589 514.28 571.439 514.28Z" fill="#D7D8DE"/>
<path d="M488.879 514.28H470.064C448.265 514.28 457.67 507.802 463.184 506.546C450.857 502.149 459.94 493.866 466.171 497.321C462.278 482.246 475.579 485.386 478.174 493.866C483.364 485.072 492.447 489.469 486.932 498.891C496.34 494.808 496.34 502.974 492.447 505.486C501.855 507.057 496.597 510.001 491.407 510.001C497.57 513.455 493.029 514.28 488.879 514.28Z" fill="#D7D8DE"/>
<path d="M545.005 516H508.159C465.469 516 483.887 503.854 494.687 501.499C470.546 493.254 488.334 477.724 500.536 484.201C492.913 455.936 518.959 461.824 524.041 477.724C534.206 461.235 551.993 469.48 541.194 487.146C559.617 479.49 559.617 494.801 551.993 499.512C570.416 502.456 560.12 507.976 549.956 507.976C562.026 514.454 553.132 516 545.005 516Z" fill="#E1E1E6"/>
<path d="M470.814 481.309C470.568 479.593 469.848 477.868 468.386 476.686C471.807 476.792 473.109 477.724 474.526 479.112C477.95 482.466 476.116 486.564 474.108 485.908C472.1 485.251 471.069 483.087 470.814 481.309Z" fill="#E5E6ED"/>
<path d="M470.546 477.595C474.126 479.347 475.481 483.981 475.965 486.273L475.509 486.388C474.897 481.585 472.481 478.564 470.546 477.595C470.484 477.565 470.422 477.536 470.358 477.507C470.42 477.535 470.483 477.564 470.546 477.595Z" fill="#434657"/>
<path d="M473.802 478.848C474.393 479.586 474.214 480.718 474.085 481.259L473.976 481.237C474.332 480.145 474.119 479.252 473.802 478.848C473.792 478.835 473.782 478.822 473.771 478.81C473.782 478.822 473.792 478.834 473.802 478.848Z" fill="#434657"/>
<path d="M472.075 479.491C472.369 479.92 472.958 480.012 473.245 480.033L473.248 479.972C472.656 479.979 472.237 479.723 472.075 479.491C472.07 479.484 472.065 479.477 472.06 479.469C472.065 479.476 472.07 479.484 472.075 479.491Z" fill="#434657"/>
<path d="M475.211 480.552C475.591 481.417 475.127 482.465 474.863 482.954L474.763 482.905C475.388 481.941 475.413 481.024 475.211 480.552C475.204 480.537 475.198 480.522 475.19 480.507C475.197 480.521 475.204 480.536 475.211 480.552Z" fill="#434657"/>
<path d="M472.253 481.119C472.78 481.905 473.913 482.075 474.467 482.115L474.48 482.004C473.331 482.015 472.543 481.543 472.253 481.119C472.244 481.106 472.235 481.092 472.227 481.078C472.235 481.092 472.244 481.106 472.253 481.119Z" fill="#434657"/>
<path d="M472.232 482.922C472.967 484.064 474.492 484.35 475.237 484.428L475.249 484.27C473.71 484.241 472.636 483.538 472.232 482.922C472.219 482.902 472.207 482.882 472.194 482.862C472.206 482.881 472.219 482.901 472.232 482.922Z" fill="#434657"/>
<path d="M571.618 485.529C572.617 484.112 574.042 482.903 575.881 482.514C572.786 481.054 571.203 481.292 569.31 481.884C564.735 483.315 564.506 487.8 566.593 488.127C568.681 488.455 570.582 486.996 571.618 485.529Z" fill="#E5E6ED"/>
<path d="M573.545 482.343C569.559 482.275 566.246 485.787 564.773 487.609L565.127 487.919C567.855 483.918 571.381 482.326 573.545 482.343C573.613 482.344 573.682 482.346 573.751 482.349C573.684 482.345 573.615 482.343 573.545 482.343Z" fill="#434657"/>
<path d="M570.075 481.978C569.213 482.367 568.858 483.456 568.726 483.997L568.834 484.027C569.014 482.892 569.609 482.193 570.075 481.978C570.089 481.971 570.104 481.964 570.12 481.958C570.105 481.964 570.09 481.971 570.075 481.978Z" fill="#434657"/>
<path d="M571.32 483.336C570.864 483.584 570.297 483.398 570.032 483.287L570.057 483.231C570.581 483.507 571.071 483.469 571.32 483.336C571.328 483.332 571.336 483.328 571.344 483.323C571.336 483.328 571.328 483.332 571.32 483.336Z" fill="#434657"/>
<path d="M568.045 482.855C567.313 483.453 567.25 484.597 567.262 485.153L567.374 485.155C567.255 484.012 567.65 483.184 568.045 482.855C568.058 482.845 568.07 482.835 568.083 482.825C568.071 482.834 568.058 482.844 568.045 482.855Z" fill="#434657"/>
<path d="M570.421 484.705C569.595 485.166 568.509 484.802 567.997 484.586L568.036 484.482C569.055 485.013 569.971 484.951 570.421 484.705C570.436 484.697 570.45 484.689 570.464 484.681C570.45 484.689 570.436 484.697 570.421 484.705Z" fill="#434657"/>
<path d="M569.622 486.32C568.447 487.004 566.959 486.565 566.26 486.296L566.321 486.15C567.705 486.824 568.981 486.686 569.622 486.32C569.642 486.309 569.662 486.296 569.682 486.284C569.663 486.296 569.642 486.308 569.622 486.32Z" fill="#434657"/>
<path d="M532.214 457.389C532.334 455.659 532.927 453.887 534.299 452.601C530.895 452.956 529.664 453.98 528.352 455.467C525.18 459.062 527.308 463.015 529.263 462.214C531.218 461.414 532.089 459.18 532.214 457.389Z" fill="#E5E6ED"/>
<path d="M532.212 453.665C528.768 455.673 527.753 460.393 527.438 462.714L527.901 462.796C528.162 457.96 530.352 454.772 532.212 453.665C532.271 453.631 532.331 453.597 532.392 453.564C532.332 453.596 532.272 453.629 532.212 453.665Z" fill="#434657"/>
<path d="M529.054 455.151C528.519 455.931 528.779 457.046 528.947 457.576L529.055 457.547C528.62 456.483 528.767 455.577 529.054 455.151C529.063 455.138 529.073 455.124 529.083 455.111C529.073 455.124 529.063 455.137 529.054 455.151Z" fill="#434657"/>
<path d="M530.824 455.668C530.562 456.116 529.981 456.25 529.697 456.293L529.689 456.232C530.28 456.196 530.68 455.91 530.824 455.668C530.829 455.66 530.833 455.652 530.837 455.644C530.833 455.652 530.829 455.66 530.824 455.668Z" fill="#434657"/>
<path d="M527.773 456.953C527.457 457.844 527.996 458.855 528.295 459.324L528.391 459.268C527.697 458.352 527.606 457.438 527.773 456.953C527.779 456.938 527.785 456.922 527.791 456.907C527.785 456.922 527.779 456.937 527.773 456.953Z" fill="#434657"/>
<path d="M530.764 457.304C530.296 458.126 529.179 458.378 528.629 458.458L528.608 458.349C529.755 458.275 530.506 457.748 530.764 457.304C530.773 457.29 530.78 457.276 530.788 457.261C530.781 457.275 530.773 457.29 530.764 457.304Z" fill="#434657"/>
<path d="M530.917 459.1C530.266 460.293 528.766 460.689 528.029 460.821L528.005 460.664C529.539 460.524 530.558 459.744 530.917 459.1C530.928 459.079 530.939 459.059 530.95 459.038C530.939 459.058 530.928 459.079 530.917 459.1Z" fill="#434657"/>
<path d="M495.06 458.773C495.002 457.755 494.667 456.708 493.869 455.941C495.869 456.175 496.585 456.786 497.346 457.671C499.186 459.809 497.906 462.12 496.761 461.634C495.617 461.149 495.121 459.828 495.06 458.773Z" fill="#E5E6ED"/>
<path d="M495.089 456.583C497.1 457.789 497.663 460.573 497.831 461.942L497.558 461.986C497.44 459.139 496.175 457.248 495.089 456.583C495.054 456.562 495.019 456.542 494.983 456.522C495.018 456.541 495.053 456.561 495.089 456.583Z" fill="#434657"/>
<path d="M496.936 457.48C497.245 457.942 497.084 458.597 496.981 458.908L496.918 458.889C497.181 458.267 497.101 457.733 496.936 457.48C496.931 457.472 496.925 457.464 496.919 457.456C496.925 457.464 496.93 457.472 496.936 457.48Z" fill="#434657"/>
<path d="M495.89 457.771C496.041 458.037 496.382 458.12 496.549 458.147L496.554 458.111C496.207 458.086 495.974 457.914 495.89 457.771C495.888 457.766 495.885 457.762 495.883 457.757C495.885 457.762 495.888 457.766 495.89 457.771Z" fill="#434657"/>
<path d="M497.676 458.549C497.856 459.076 497.531 459.667 497.352 459.941L497.296 459.907C497.711 459.373 497.771 458.836 497.676 458.549C497.673 458.54 497.67 458.531 497.667 458.522C497.67 458.531 497.673 458.54 497.676 458.549Z" fill="#434657"/>
<path d="M495.914 458.734C496.183 459.221 496.839 459.378 497.162 459.429L497.175 459.365C496.501 459.313 496.063 458.997 495.914 458.734C495.909 458.726 495.905 458.717 495.9 458.709C495.905 458.717 495.909 458.726 495.914 458.734Z" fill="#434657"/>
<path d="M495.811 459.79C496.185 460.496 497.065 460.74 497.497 460.823L497.512 460.731C496.611 460.637 496.017 460.171 495.811 459.79C495.804 459.778 495.798 459.765 495.792 459.753C495.798 459.765 495.804 459.777 495.811 459.79Z" fill="#434657"/>
<path d="M130.574 516H112.318C91.1668 516 100.292 509.982 105.643 508.815C93.6825 504.73 102.496 497.036 108.541 500.245C104.764 486.241 117.669 489.158 120.187 497.036C125.223 488.866 134.036 492.951 128.685 501.704C137.813 497.911 137.813 505.497 134.036 507.831C143.164 509.29 138.063 512.024 133.027 512.024C139.007 515.234 134.6 516 130.574 516Z" fill="#EDEEF2"/>
<path d="M140.699 515.148H131.377C120.576 515.148 125.236 511.938 127.969 511.316C121.861 509.137 126.361 505.033 129.449 506.745C127.52 499.276 134.11 500.832 135.395 505.033C137.967 500.677 142.467 502.855 139.735 507.523C144.396 505.5 144.396 509.546 142.467 510.791C147.128 511.569 144.523 513.028 141.952 513.028C145.006 514.739 142.755 515.148 140.699 515.148Z" fill="#DFE0E6"/>
<path d="M99.0239 494.411C98.5289 493.709 97.8229 493.11 96.9114 492.917C98.4449 492.194 99.2293 492.312 100.167 492.605C102.434 493.314 102.547 495.536 101.513 495.699C100.479 495.861 99.5368 495.138 99.0239 494.411Z" fill="#E5E6ED"/>
<path d="M98.0693 492.833C100.044 492.799 101.685 494.539 102.415 495.442L102.24 495.595C100.888 493.613 99.1414 492.824 98.0693 492.833C98.0353 492.833 98.0011 492.834 97.9668 492.836C98.0002 492.834 98.0344 492.833 98.0693 492.833Z" fill="#434657"/>
<path d="M99.7884 492.652C100.215 492.845 100.391 493.384 100.456 493.652L100.403 493.667C100.314 493.105 100.019 492.759 99.7884 492.652C99.7811 492.648 99.7736 492.645 99.7661 492.642C99.7735 492.645 99.7809 492.648 99.7884 492.652Z" fill="#434657"/>
<path d="M99.1708 493.325C99.3971 493.448 99.6776 493.355 99.809 493.3L99.7968 493.273C99.5371 493.409 99.2942 493.39 99.1708 493.325C99.1669 493.323 99.1631 493.32 99.1592 493.318C99.1629 493.32 99.1668 493.323 99.1708 493.325Z" fill="#434657"/>
<path d="M100.794 493.086C101.157 493.383 101.188 493.95 101.182 494.225L101.127 494.226C101.185 493.66 100.99 493.249 100.794 493.086C100.788 493.081 100.781 493.076 100.775 493.071C100.781 493.076 100.788 493.081 100.794 493.086Z" fill="#434657"/>
<path d="M99.6163 494.003C100.026 494.231 100.564 494.051 100.818 493.944L100.798 493.892C100.293 494.156 99.8396 494.125 99.6163 494.003C99.6092 493.999 99.6022 493.995 99.5952 493.991C99.602 493.995 99.609 493.999 99.6163 494.003Z" fill="#434657"/>
<path d="M100.013 494.803C100.595 495.142 101.332 494.924 101.678 494.791L101.648 494.719C100.962 495.053 100.33 494.984 100.013 494.803C100.003 494.797 99.9929 494.791 99.9829 494.785C99.9926 494.791 100.003 494.797 100.013 494.803Z" fill="#434657"/>
<path d="M141.563 500.376C142.058 499.674 142.764 499.075 143.676 498.883C142.142 498.159 141.358 498.277 140.42 498.571C138.153 499.28 138.04 501.501 139.074 501.664C140.108 501.826 141.05 501.104 141.563 500.376Z" fill="#E5E6ED"/>
<path d="M142.518 498.798C140.543 498.764 138.901 500.504 138.172 501.407L138.347 501.561C139.699 499.578 141.446 498.79 142.518 498.798C142.552 498.798 142.586 498.799 142.62 498.801C142.587 498.799 142.552 498.798 142.518 498.798Z" fill="#434657"/>
<path d="M140.798 498.617C140.371 498.81 140.196 499.35 140.131 499.617L140.184 499.632C140.273 499.07 140.568 498.724 140.798 498.617C140.806 498.614 140.813 498.61 140.821 498.607C140.813 498.61 140.806 498.613 140.798 498.617Z" fill="#434657"/>
<path d="M141.416 499.29C141.19 499.413 140.909 499.321 140.778 499.266L140.79 499.238C141.05 499.375 141.293 499.356 141.416 499.29C141.42 499.288 141.424 499.286 141.428 499.284C141.424 499.286 141.42 499.288 141.416 499.29Z" fill="#434657"/>
<path d="M139.793 499.052C139.43 499.348 139.399 499.915 139.405 500.19L139.46 500.191C139.402 499.625 139.597 499.214 139.793 499.052C139.799 499.047 139.806 499.042 139.812 499.037C139.806 499.041 139.799 499.046 139.793 499.052Z" fill="#434657"/>
<path d="M140.971 499.968C140.561 500.197 140.023 500.016 139.769 499.909L139.789 499.858C140.294 500.121 140.747 500.09 140.971 499.968C140.978 499.964 140.985 499.96 140.992 499.956C140.985 499.96 140.978 499.964 140.971 499.968Z" fill="#434657"/>
<path d="M140.574 500.769C139.992 501.107 139.255 500.89 138.909 500.757L138.939 500.684C139.625 501.018 140.257 500.95 140.574 500.769C140.584 500.763 140.594 500.757 140.604 500.751C140.594 500.757 140.584 500.763 140.574 500.769Z" fill="#434657"/>
<path d="M122.532 490.369C122.592 489.512 122.885 488.634 123.565 487.997C121.878 488.173 121.269 488.68 120.619 489.417C119.047 491.198 120.101 493.157 121.07 492.76C122.038 492.363 122.47 491.257 122.532 490.369Z" fill="#E5E6ED"/>
<path d="M122.531 488.524C120.825 489.519 120.322 491.857 120.166 493.008L120.395 493.048C120.524 490.652 121.609 489.073 122.531 488.524C122.56 488.507 122.59 488.49 122.62 488.474C122.591 488.49 122.561 488.507 122.531 488.524Z" fill="#434657"/>
<path d="M120.966 489.26C120.701 489.647 120.83 490.199 120.913 490.462L120.967 490.448C120.752 489.92 120.824 489.471 120.966 489.26C120.971 489.254 120.976 489.247 120.98 489.241C120.976 489.247 120.971 489.254 120.966 489.26Z" fill="#434657"/>
<path d="M121.843 489.516C121.713 489.739 121.425 489.805 121.284 489.826L121.281 489.796C121.573 489.778 121.772 489.636 121.843 489.516C121.845 489.513 121.847 489.509 121.85 489.505C121.848 489.509 121.845 489.512 121.843 489.516Z" fill="#434657"/>
<path d="M120.332 490.153C120.175 490.595 120.442 491.096 120.59 491.328L120.638 491.3C120.294 490.846 120.249 490.394 120.332 490.153C120.335 490.146 120.337 490.138 120.34 490.13C120.337 490.138 120.335 490.145 120.332 490.153Z" fill="#434657"/>
<path d="M121.813 490.327C121.582 490.734 121.028 490.859 120.755 490.899L120.745 490.845C121.313 490.808 121.686 490.547 121.813 490.327C121.817 490.32 121.821 490.313 121.825 490.306C121.822 490.313 121.818 490.32 121.813 490.327Z" fill="#434657"/>
<path d="M121.889 491.217C121.567 491.808 120.823 492.004 120.458 492.07L120.446 491.992C121.206 491.922 121.711 491.536 121.889 491.217C121.895 491.207 121.9 491.197 121.905 491.186C121.9 491.196 121.895 491.207 121.889 491.217Z" fill="#434657"/>
<path d="M104.561 490.203C104.532 489.698 104.366 489.18 103.97 488.8C104.961 488.916 105.316 489.219 105.693 489.657C106.605 490.716 105.971 491.861 105.404 491.62C104.837 491.38 104.591 490.726 104.561 490.203Z" fill="#E5E6ED"/>
<path d="M104.575 489.118C105.572 489.715 105.85 491.095 105.934 491.773L105.799 491.795C105.74 490.384 105.113 489.447 104.575 489.118C104.558 489.107 104.541 489.097 104.523 489.087C104.54 489.097 104.558 489.107 104.575 489.118Z" fill="#434657"/>
<path d="M105.49 489.562C105.643 489.791 105.563 490.116 105.513 490.269L105.481 490.261C105.612 489.952 105.572 489.687 105.49 489.562C105.487 489.558 105.485 489.554 105.482 489.55C105.485 489.554 105.487 489.558 105.49 489.562Z" fill="#434657"/>
<path d="M104.972 489.706C105.047 489.838 105.216 489.879 105.298 489.893L105.301 489.875C105.129 489.862 105.013 489.777 104.972 489.706C104.971 489.704 104.969 489.702 104.968 489.699C104.969 489.702 104.971 489.704 104.972 489.706Z" fill="#434657"/>
<path d="M105.857 490.092C105.946 490.353 105.785 490.646 105.696 490.781L105.668 490.765C105.874 490.5 105.904 490.234 105.857 490.092C105.855 490.088 105.854 490.083 105.852 490.079C105.854 490.083 105.855 490.087 105.857 490.092Z" fill="#434657"/>
<path d="M104.984 490.184C105.117 490.425 105.442 490.502 105.602 490.528L105.609 490.496C105.275 490.47 105.057 490.314 104.984 490.184C104.981 490.179 104.979 490.175 104.977 490.171C104.979 490.175 104.981 490.179 104.984 490.184Z" fill="#434657"/>
<path d="M104.933 490.707C105.118 491.057 105.554 491.177 105.768 491.219L105.776 491.173C105.329 491.127 105.035 490.896 104.933 490.707C104.93 490.701 104.926 490.694 104.923 490.688C104.926 490.694 104.929 490.7 104.933 490.707Z" fill="#434657"/>
<path d="M136.026 496.168C136.055 495.664 136.221 495.145 136.617 494.765C135.626 494.881 135.271 495.184 134.893 495.622C133.982 496.681 134.616 497.826 135.183 497.586C135.75 497.345 135.996 496.691 136.026 496.168Z" fill="#E5E6ED"/>
<path d="M136.012 495.083C135.015 495.681 134.736 497.06 134.653 497.738L134.788 497.76C134.847 496.35 135.474 495.412 136.012 495.083C136.029 495.073 136.046 495.063 136.064 495.053C136.047 495.062 136.029 495.072 136.012 495.083Z" fill="#434657"/>
<path d="M135.097 495.527C134.944 495.757 135.024 496.081 135.074 496.235L135.106 496.226C134.975 495.917 135.015 495.653 135.097 495.527C135.099 495.524 135.102 495.52 135.105 495.516C135.102 495.519 135.1 495.523 135.097 495.527Z" fill="#434657"/>
<path d="M135.615 495.672C135.54 495.803 135.371 495.845 135.288 495.858L135.286 495.84C135.458 495.828 135.574 495.743 135.615 495.672C135.616 495.669 135.617 495.667 135.619 495.665C135.617 495.667 135.616 495.669 135.615 495.672Z" fill="#434657"/>
<path d="M134.73 496.057C134.641 496.318 134.802 496.611 134.891 496.747L134.918 496.73C134.713 496.465 134.683 496.199 134.73 496.057C134.732 496.053 134.733 496.048 134.735 496.044C134.733 496.048 134.732 496.053 134.73 496.057Z" fill="#434657"/>
<path d="M135.603 496.149C135.47 496.39 135.145 496.468 134.985 496.493L134.978 496.461C135.312 496.436 135.529 496.279 135.603 496.149C135.605 496.145 135.608 496.141 135.61 496.136C135.608 496.141 135.606 496.145 135.603 496.149Z" fill="#434657"/>
<path d="M135.654 496.672C135.469 497.022 135.033 497.143 134.819 497.184L134.811 497.138C135.258 497.092 135.552 496.861 135.654 496.672C135.657 496.666 135.661 496.66 135.664 496.654C135.661 496.66 135.658 496.666 135.654 496.672Z" fill="#434657"/>
<path d="M201.094 516H182.838C161.687 516 170.812 509.982 176.163 508.815C164.202 504.73 173.016 497.036 179.061 500.245C175.284 486.241 188.189 489.158 190.707 497.036C195.743 488.866 204.556 492.951 199.205 501.704C208.333 497.911 208.333 505.497 204.556 507.831C213.684 509.29 208.583 512.024 203.547 512.024C209.527 515.234 205.12 516 201.094 516Z" fill="#EDEEF2"/>
<path d="M211.219 515.148H201.897C191.097 515.148 195.756 511.938 198.489 511.316C192.381 509.137 196.881 505.033 199.969 506.745C198.04 499.276 204.63 500.832 205.915 505.033C208.487 500.677 212.987 502.855 210.255 507.523C214.916 505.5 214.916 509.546 212.987 510.791C217.648 511.569 215.043 513.028 212.472 513.028C215.526 514.739 213.275 515.148 211.219 515.148Z" fill="#DFE0E6"/>
<path d="M169.544 494.411C169.049 493.709 168.343 493.11 167.431 492.917C168.965 492.194 169.749 492.312 170.687 492.605C172.954 493.314 173.067 495.536 172.033 495.699C170.999 495.861 170.057 495.138 169.544 494.411Z" fill="#E5E6ED"/>
<path d="M168.589 492.833C170.564 492.799 172.206 494.539 172.935 495.442L172.76 495.595C171.408 493.613 169.661 492.824 168.589 492.833C168.555 492.833 168.521 492.834 168.487 492.836C168.52 492.834 168.554 492.833 168.589 492.833Z" fill="#434657"/>
<path d="M170.308 492.652C170.735 492.845 170.911 493.384 170.976 493.652L170.923 493.667C170.834 493.105 170.539 492.759 170.308 492.652C170.301 492.648 170.294 492.645 170.286 492.642C170.294 492.645 170.301 492.648 170.308 492.652Z" fill="#434657"/>
<path d="M169.691 493.325C169.917 493.448 170.198 493.355 170.329 493.3L170.317 493.273C170.057 493.409 169.814 493.39 169.691 493.325C169.687 493.323 169.683 493.32 169.679 493.318C169.683 493.32 169.687 493.323 169.691 493.325Z" fill="#434657"/>
<path d="M171.314 493.086C171.677 493.383 171.708 493.95 171.702 494.225L171.647 494.226C171.705 493.66 171.51 493.249 171.314 493.086C171.308 493.081 171.301 493.076 171.295 493.071C171.301 493.076 171.308 493.081 171.314 493.086Z" fill="#434657"/>
<path d="M170.136 494.003C170.546 494.231 171.084 494.051 171.338 493.944L171.318 493.892C170.813 494.156 170.36 494.125 170.136 494.003C170.129 493.999 170.122 493.995 170.115 493.991C170.122 493.995 170.129 493.999 170.136 494.003Z" fill="#434657"/>
<path d="M170.533 494.803C171.115 495.142 171.852 494.924 172.198 494.791L172.168 494.719C171.482 495.053 170.85 494.984 170.533 494.803C170.523 494.797 170.513 494.791 170.503 494.785C170.513 494.791 170.523 494.797 170.533 494.803Z" fill="#434657"/>
<path d="M212.083 500.376C212.578 499.674 213.284 499.075 214.196 498.883C212.662 498.159 211.878 498.277 210.94 498.571C208.673 499.28 208.56 501.501 209.594 501.664C210.628 501.826 211.57 501.104 212.083 500.376Z" fill="#E5E6ED"/>
<path d="M213.038 498.798C211.063 498.764 209.421 500.504 208.692 501.407L208.867 501.561C210.219 499.578 211.966 498.79 213.038 498.798C213.072 498.798 213.106 498.799 213.14 498.801C213.107 498.799 213.073 498.798 213.038 498.798Z" fill="#434657"/>
<path d="M211.318 498.617C210.891 498.81 210.716 499.35 210.651 499.617L210.704 499.632C210.793 499.07 211.088 498.724 211.318 498.617C211.326 498.614 211.333 498.61 211.341 498.607C211.333 498.61 211.326 498.613 211.318 498.617Z" fill="#434657"/>
<path d="M211.936 499.29C211.71 499.413 211.429 499.321 211.298 499.266L211.31 499.238C211.57 499.375 211.813 499.356 211.936 499.29C211.94 499.288 211.944 499.286 211.948 499.284C211.944 499.286 211.94 499.288 211.936 499.29Z" fill="#434657"/>
<path d="M210.313 499.052C209.95 499.348 209.919 499.915 209.925 500.19L209.98 500.191C209.922 499.625 210.117 499.214 210.313 499.052C210.319 499.047 210.326 499.042 210.332 499.037C210.326 499.041 210.319 499.046 210.313 499.052Z" fill="#434657"/>
<path d="M211.491 499.968C211.081 500.197 210.543 500.016 210.289 499.909L210.309 499.858C210.814 500.121 211.267 500.09 211.491 499.968C211.498 499.964 211.505 499.96 211.512 499.956C211.505 499.96 211.498 499.964 211.491 499.968Z" fill="#434657"/>
<path d="M211.094 500.769C210.512 501.107 209.775 500.89 209.429 500.757L209.459 500.684C210.145 501.018 210.777 500.95 211.094 500.769C211.104 500.763 211.114 500.757 211.124 500.751C211.114 500.757 211.104 500.763 211.094 500.769Z" fill="#434657"/>
<path d="M193.052 490.369C193.112 489.512 193.405 488.634 194.085 487.997C192.398 488.173 191.789 488.68 191.139 489.417C189.567 491.198 190.621 493.157 191.59 492.76C192.558 492.363 192.99 491.257 193.052 490.369Z" fill="#E5E6ED"/>
<path d="M193.051 488.524C191.345 489.519 190.842 491.857 190.686 493.008L190.915 493.048C191.044 490.652 192.13 489.073 193.051 488.524C193.08 488.507 193.11 488.49 193.14 488.474C193.111 488.49 193.081 488.507 193.051 488.524Z" fill="#434657"/>
<path d="M191.486 489.26C191.221 489.647 191.35 490.199 191.433 490.462L191.487 490.448C191.272 489.92 191.344 489.471 191.486 489.26C191.491 489.254 191.496 489.247 191.5 489.241C191.496 489.247 191.491 489.254 191.486 489.26Z" fill="#434657"/>
<path d="M192.363 489.516C192.233 489.739 191.946 489.805 191.804 489.826L191.801 489.796C192.093 489.778 192.292 489.636 192.363 489.516C192.365 489.513 192.367 489.509 192.37 489.505C192.368 489.509 192.365 489.512 192.363 489.516Z" fill="#434657"/>
<path d="M190.852 490.153C190.695 490.595 190.962 491.096 191.11 491.328L191.158 491.3C190.814 490.846 190.769 490.394 190.852 490.153C190.855 490.146 190.857 490.138 190.86 490.13C190.857 490.138 190.855 490.145 190.852 490.153Z" fill="#434657"/>
<path d="M192.333 490.327C192.102 490.734 191.548 490.859 191.275 490.899L191.265 490.845C191.833 490.808 192.206 490.547 192.333 490.327C192.337 490.32 192.341 490.313 192.345 490.306C192.342 490.313 192.338 490.32 192.333 490.327Z" fill="#434657"/>
<path d="M192.409 491.217C192.087 491.808 191.344 492.004 190.979 492.07L190.967 491.992C191.727 491.922 192.232 491.536 192.409 491.217C192.415 491.207 192.42 491.197 192.426 491.186C192.421 491.196 192.415 491.207 192.409 491.217Z" fill="#434657"/>
<path d="M175.081 490.203C175.052 489.698 174.886 489.18 174.49 488.8C175.481 488.916 175.836 489.219 176.214 489.657C177.125 490.716 176.491 491.861 175.924 491.62C175.357 491.38 175.111 490.726 175.081 490.203Z" fill="#E5E6ED"/>
<path d="M175.095 489.118C176.092 489.715 176.371 491.095 176.454 491.773L176.319 491.795C176.26 490.384 175.633 489.447 175.095 489.118C175.078 489.107 175.061 489.097 175.043 489.087C175.06 489.097 175.078 489.107 175.095 489.118Z" fill="#434657"/>
<path d="M176.01 489.562C176.163 489.791 176.083 490.116 176.033 490.269L176.001 490.261C176.132 489.952 176.092 489.687 176.01 489.562C176.007 489.558 176.005 489.554 176.002 489.55C176.005 489.554 176.007 489.558 176.01 489.562Z" fill="#434657"/>
<path d="M175.492 489.706C175.567 489.838 175.736 489.879 175.818 489.893L175.821 489.875C175.649 489.862 175.533 489.777 175.492 489.706C175.491 489.704 175.49 489.702 175.488 489.699C175.489 489.702 175.491 489.704 175.492 489.706Z" fill="#434657"/>
<path d="M176.377 490.092C176.466 490.353 176.305 490.646 176.216 490.781L176.189 490.765C176.394 490.5 176.424 490.234 176.377 490.092C176.375 490.088 176.374 490.083 176.372 490.079C176.374 490.083 176.375 490.087 176.377 490.092Z" fill="#434657"/>
<path d="M175.504 490.184C175.637 490.425 175.962 490.502 176.122 490.528L176.129 490.496C175.795 490.47 175.577 490.314 175.504 490.184C175.502 490.179 175.499 490.175 175.497 490.171C175.499 490.175 175.501 490.179 175.504 490.184Z" fill="#434657"/>
<path d="M175.453 490.707C175.638 491.057 176.074 491.177 176.288 491.219L176.296 491.173C175.849 491.127 175.555 490.896 175.453 490.707C175.45 490.701 175.446 490.694 175.443 490.688C175.446 490.694 175.449 490.7 175.453 490.707Z" fill="#434657"/>
<path d="M206.546 496.168C206.575 495.664 206.741 495.145 207.137 494.765C206.146 494.881 205.791 495.184 205.413 495.622C204.502 496.681 205.136 497.826 205.703 497.586C206.27 497.345 206.516 496.691 206.546 496.168Z" fill="#E5E6ED"/>
<path d="M206.532 495.083C205.535 495.681 205.256 497.06 205.173 497.738L205.308 497.76C205.367 496.35 205.994 495.412 206.532 495.083C206.549 495.073 206.566 495.063 206.584 495.053C206.567 495.062 206.549 495.072 206.532 495.083Z" fill="#434657"/>
<path d="M205.617 495.527C205.464 495.757 205.544 496.081 205.594 496.235L205.626 496.226C205.495 495.917 205.535 495.653 205.617 495.527C205.62 495.524 205.622 495.52 205.625 495.516C205.622 495.519 205.62 495.523 205.617 495.527Z" fill="#434657"/>
<path d="M206.135 495.672C206.06 495.803 205.891 495.845 205.808 495.858L205.806 495.84C205.978 495.828 206.094 495.743 206.135 495.672C206.136 495.669 206.137 495.667 206.139 495.665C206.137 495.667 206.136 495.669 206.135 495.672Z" fill="#434657"/>
<path d="M205.25 496.057C205.161 496.318 205.322 496.611 205.411 496.747L205.438 496.73C205.233 496.465 205.203 496.199 205.25 496.057C205.252 496.053 205.253 496.048 205.255 496.044C205.253 496.048 205.252 496.053 205.25 496.057Z" fill="#434657"/>
<path d="M206.123 496.149C205.99 496.39 205.665 496.468 205.505 496.493L205.498 496.461C205.832 496.436 206.049 496.279 206.123 496.149C206.125 496.145 206.128 496.141 206.13 496.136C206.128 496.141 206.126 496.145 206.123 496.149Z" fill="#434657"/>
<path d="M206.174 496.672C205.989 497.022 205.553 497.143 205.339 497.184L205.331 497.138C205.778 497.092 206.072 496.861 206.174 496.672C206.177 496.666 206.181 496.66 206.184 496.654C206.181 496.66 206.178 496.666 206.174 496.672Z" fill="#434657"/>
<rect x="339.4" y="290.68" width="13.76" height="223.6" fill="#20242E"/>
<rect x="339.4" y="290.68" width="10.32" height="223.6" fill="#82869E"/>
<path d="M390.513 169.529C396.204 169.529 401.463 172.565 404.309 177.494L447.681 252.616C450.526 257.545 450.526 263.617 447.681 268.546L404.309 343.668C401.463 348.597 396.204 351.633 390.513 351.633L303.77 351.633C298.078 351.633 292.819 348.597 289.974 343.668L246.602 268.546C243.756 263.617 243.756 257.545 246.602 252.616L289.974 177.494C292.819 172.565 298.078 169.529 303.77 169.529L390.513 169.529Z" fill="#8E20C1"/>
<path fill-rule="evenodd" clip-rule="evenodd" d="M268.173 305.909C334.513 298.703 386.149 242.507 386.149 174.25C386.149 172.669 386.121 171.096 386.066 169.529L303.769 169.529C298.078 169.529 292.819 172.565 289.973 177.494L246.601 252.616C243.756 257.545 243.756 263.617 246.602 268.546L268.173 305.909Z" fill="white" fill-opacity="0.15"/>
<path d="M394.981 186.694L433.782 253.898C435.867 257.509 435.867 261.958 433.782 265.569L394.981 332.774C392.896 336.385 389.043 338.609 384.874 338.609L307.273 338.609C303.103 338.609 299.25 336.385 297.165 332.774L258.365 265.569C256.28 261.958 256.28 257.509 258.365 253.898L297.165 186.694C299.25 183.083 303.103 180.858 307.273 180.858L384.874 180.858C389.043 180.858 392.896 183.083 394.981 186.694Z" stroke="white" stroke-width="5.16"/>
<path d="M327.185 265.125V271.305H298.501L298.118 266.52L314.716 240.188H320.978L314.197 251.535L305.939 265.125H327.185ZM322.673 240.188V280H314.798V240.188H322.673ZM358.247 256.594V263.484C358.247 266.474 357.928 269.053 357.29 271.223C356.652 273.374 355.732 275.142 354.529 276.527C353.344 277.895 351.931 278.906 350.29 279.562C348.65 280.219 346.827 280.547 344.822 280.547C343.217 280.547 341.723 280.346 340.337 279.945C338.952 279.526 337.703 278.879 336.591 278.004C335.497 277.129 334.549 276.026 333.747 274.695C332.964 273.346 332.362 271.742 331.943 269.883C331.523 268.023 331.314 265.891 331.314 263.484V256.594C331.314 253.604 331.633 251.043 332.271 248.91C332.927 246.759 333.848 245 335.033 243.633C336.236 242.266 337.658 241.263 339.298 240.625C340.939 239.969 342.762 239.641 344.767 239.641C346.371 239.641 347.857 239.85 349.224 240.27C350.609 240.671 351.858 241.299 352.97 242.156C354.082 243.013 355.03 244.116 355.814 245.465C356.598 246.796 357.199 248.391 357.618 250.25C358.038 252.091 358.247 254.206 358.247 256.594ZM350.345 264.523V255.527C350.345 254.087 350.263 252.829 350.099 251.754C349.953 250.678 349.725 249.767 349.415 249.02C349.105 248.254 348.723 247.634 348.267 247.16C347.811 246.686 347.292 246.34 346.708 246.121C346.125 245.902 345.478 245.793 344.767 245.793C343.874 245.793 343.081 245.966 342.388 246.312C341.714 246.659 341.139 247.215 340.665 247.98C340.191 248.728 339.827 249.73 339.572 250.988C339.335 252.228 339.216 253.741 339.216 255.527V264.523C339.216 265.964 339.289 267.23 339.435 268.324C339.599 269.418 339.836 270.357 340.146 271.141C340.474 271.906 340.857 272.535 341.294 273.027C341.75 273.501 342.27 273.848 342.853 274.066C343.454 274.285 344.111 274.395 344.822 274.395C345.697 274.395 346.471 274.221 347.146 273.875C347.839 273.51 348.422 272.945 348.896 272.18C349.388 271.396 349.753 270.375 349.99 269.117C350.227 267.859 350.345 266.328 350.345 264.523ZM391.497 265.125V271.305H362.814L362.431 266.52L379.029 240.188H385.29L378.509 251.535L370.251 265.125H391.497ZM386.986 240.188V280H379.111V240.188H386.986Z" fill="white"/>
<path d="M250.574 383.56H267.558L306.159 503.995H211.973L250.574 383.56Z" fill="white"/>
<path fill-rule="evenodd" clip-rule="evenodd" d="M250.574 383.56H267.558L283.147 432.197H234.985L250.574 383.56ZM230.531 446.094L224.84 463.85H293.292L287.601 446.094H230.531ZM220.386 477.747H297.746L306.159 503.995H211.973L220.386 477.747Z" fill="#8E20C1"/>
<rect x="188.04" y="503.995" width="142.052" height="10.8083" fill="#8E20C1"/>
<path fill-rule="evenodd" clip-rule="evenodd" d="M302.448 492.415L306.159 503.995H211.973L215.684 492.415H302.448Z" fill="black" fill-opacity="0.2"/>
<mask id="mask0_109_22078" style="mask-type:alpha" maskUnits="userSpaceOnUse" x="188" y="383" width="143" height="132">
<path fill-rule="evenodd" clip-rule="evenodd" d="M250.574 383.56H267.558L283.147 432.197H234.985L250.574 383.56ZM230.531 446.094L224.84 463.85H293.292L287.601 446.094H230.531ZM220.386 477.747H297.746L306.159 503.995H211.973L220.386 477.747Z" fill="#2F63FF"/>
<rect x="188.04" y="503.995" width="142.052" height="10.8083" fill="#2F63FF"/>
<path fill-rule="evenodd" clip-rule="evenodd" d="M302.448 492.415L306.159 503.995H211.973L215.684 492.415H302.448Z" fill="black" fill-opacity="0.2"/>
</mask>
<g mask="url(#mask0_109_22078)">
<circle cx="169.511" cy="354.223" r="144.368" fill="white" fill-opacity="0.2"/>
</g>
<path d="M4 516H692" stroke="#20242E" stroke-width="6.88" stroke-linecap="round" stroke-linejoin="round"/>
</svg>
