<svg width="270" height="176" viewBox="0 0 270 176" fill="none" xmlns="http://www.w3.org/2000/svg">
<g clip-path="url(#clip0_1_44220)">
<path d="M3.22285 145.005C5.58533 153.919 9.17277 162.44 13.7378 169.906C14.9894 171.954 16.322 173.922 17.708 175.835H248.688C246.91 163.742 242.874 144.389 234.241 138.975C233.231 138.342 232.218 137.748 231.209 137.194C230.828 136.987 230.45 136.784 230.07 136.587C230.03 136.566 229.988 136.545 229.946 136.524C224.173 133.558 216.811 131.951 212.204 126.367C210.623 124.45 209.743 122.532 209.38 120.627C209.365 120.549 209.351 120.471 209.339 120.394C209.333 120.363 209.328 120.333 209.323 120.302C209.31 120.221 209.298 120.139 209.286 120.058C209.281 120.014 209.275 119.97 209.269 119.925C209.261 119.859 209.253 119.793 209.246 119.727C209.233 119.607 209.221 119.487 209.213 119.369C209.209 119.316 209.205 119.263 209.202 119.208C209.198 119.155 209.195 119.101 209.194 119.049C209.188 118.942 209.184 118.834 209.183 118.728C209.182 118.664 209.181 118.602 209.181 118.538C209.181 118.495 209.181 118.452 209.181 118.408C209.18 118.369 209.181 118.33 209.182 118.291C209.183 118.224 209.185 118.157 209.187 118.09C209.191 117.983 209.196 117.877 209.201 117.77C209.214 117.558 209.231 117.346 209.254 117.133C209.263 117.058 209.272 116.981 209.281 116.904C209.288 116.854 209.294 116.804 209.3 116.754C209.326 116.562 209.357 116.372 209.391 116.182C209.401 116.13 209.409 116.078 209.42 116.024C209.429 115.972 209.44 115.919 209.451 115.867L209.483 115.709C209.505 115.605 209.528 115.499 209.553 115.394C209.573 115.308 209.595 115.222 209.616 115.136C209.62 115.117 209.625 115.099 209.63 115.08C209.65 115.001 209.67 114.922 209.692 114.843C209.713 114.764 209.734 114.687 209.757 114.608C209.786 114.503 209.818 114.399 209.849 114.295C209.881 114.19 209.913 114.087 209.947 113.984C209.954 113.965 209.959 113.947 209.966 113.93C209.993 113.844 210.023 113.757 210.052 113.67L210.106 113.515C210.124 113.463 210.143 113.411 210.162 113.359C210.218 113.203 210.276 113.048 210.337 112.894C210.375 112.794 210.414 112.692 210.456 112.592C210.603 112.228 210.761 111.865 210.927 111.505C210.974 111.403 211.022 111.301 211.07 111.199C211.093 111.148 211.117 111.098 211.143 111.047C211.339 110.639 211.546 110.234 211.76 109.831C211.813 109.731 211.866 109.63 211.922 109.531C211.976 109.431 212.032 109.331 212.087 109.231C212.143 109.13 212.199 109.029 212.256 108.931C213.294 107.095 214.474 105.314 215.591 103.603C215.639 103.531 215.686 103.458 215.733 103.386C215.794 103.293 215.855 103.2 215.914 103.109C215.994 102.986 216.073 102.865 216.152 102.742C216.477 102.24 216.795 101.742 217.098 101.253C217.572 100.487 218.012 99.7374 218.397 99.0088C223.144 90.0185 225.656 80.0343 225.936 69.6613C225.954 68.9945 225.962 68.3255 225.962 67.6555C225.962 67.0249 225.955 66.3922 225.939 65.7584C225.516 48.6724 216.023 20.0631 185.44 13.9562C156.302 8.13808 144.808 24.4826 139.776 31.807C139.716 31.8943 139.656 31.9806 139.596 32.068C139.554 32.1298 139.512 32.1905 139.471 32.2523C137.018 35.8282 134.591 39.436 132.058 42.9033C132.057 42.9043 132.057 42.9043 132.056 42.9043C131.891 43.1344 131.725 43.3581 131.558 43.585C130.709 44.7344 129.848 45.8667 128.968 46.9756C128.74 47.2642 128.51 47.5465 128.281 47.8235C127.713 48.5073 127.143 49.155 126.571 49.7653C125.107 51.3269 123.632 52.6531 122.138 53.7727C120.753 54.8112 119.355 55.6719 117.94 56.3782C116.536 57.0801 115.116 57.6298 113.675 58.0505C113.151 58.205 112.623 58.3413 112.093 58.4606C110.975 58.7152 109.844 58.8995 108.7 59.022C107.369 59.1647 106.02 59.2255 104.651 59.2191C103.041 59.2148 101.403 59.1168 99.736 58.9549C94.1539 58.4127 88.2338 57.1472 81.8649 56.1577C67.5695 53.9388 53.1399 54.3255 39.8253 59.888C23.4479 66.7309 8.25485 80.2495 2.58639 100.813C-1.23345 114.672 -0.654561 130.366 3.22179 144.997L3.22285 145.005Z" fill="#E4E5F0"/>
<path d="M159.213 147.49H120.183V175.834H159.213V147.49Z" fill="#BCBFD6"/>
<path d="M133.407 147.886H120.183V175.835H133.407V147.886Z" fill="#A7ABC3"/>
<path d="M144.994 147.49H140.262V157.382H144.994V147.49Z" fill="#E4E5F0"/>
<path d="M99.344 48.266C115.253 45.7918 126.481 33.0745 124.423 19.861C122.364 6.64753 107.799 -2.05838 91.8897 0.415802C75.9808 2.88998 64.7528 15.6073 66.8112 28.8208C68.8696 42.0343 83.4351 50.7402 99.344 48.266Z" fill="#E4E5F0"/>
<path d="M112.692 147.686H4.70587V150.055C6.9884 157.129 10.0428 163.863 13.7379 169.906C14.9895 171.954 16.3221 173.922 17.7081 175.835H112.692V147.686Z" fill="#A7ABC3"/>
<path d="M3.2218 144.998L3.22286 145.003C3.37425 145.573 3.5299 146.141 3.69088 146.708L4.70581 147.686L12.5118 130.981L0.0266868 118.762C-0.188666 127.484 0.949932 136.424 3.2218 144.998Z" fill="#CCCFE2"/>
<path d="M133.013 137.935L125.107 119.87L105.62 130.931L112.666 147.691L133.013 137.935Z" fill="#CCCFE2"/>
<path d="M105.798 105.072H11.6003V131.414H105.798V105.072Z" fill="#CCCFE2"/>
<path d="M105.798 105.072H11.6015V131.414H105.798V105.072Z" fill="#CCCFE2"/>
<path d="M52.2966 166.715H65.1026H122.27L112.666 147.691H4.73247L4.25912 148.629C6.20796 154.995 8.78046 161.107 11.8828 166.715H52.2966Z" fill="#CCCFE2"/>
<path d="M4.73251 147.691H112.666L105.798 131.414H11.6003L4.73251 147.691Z" fill="#61667C"/>
<path d="M199.171 132.352C199.171 132.352 199.073 168.424 199.171 176H163.178V132.352H199.171Z" fill="#BCBFD6"/>
<path d="M175.372 132.894H163.178V176H175.372V132.894Z" fill="#A7ABC3"/>
<path d="M186.058 132.352H181.695V145.891H186.058V132.352Z" fill="#CCCFE2"/>
<path opacity="0.65" d="M110.93 91.9242L11.6003 131.414L12.5129 147.686H93.3544L118.114 96.6825L110.93 91.9242Z" fill="url(#paint0_linear_1_44220)"/>
<path d="M148.686 132.093C143.467 133.256 139.103 123.237 135.21 113.578C135.208 113.576 135.208 113.575 135.207 113.573C134.116 110.869 133.061 108.193 132.036 105.799C132.034 105.794 132.033 105.793 132.033 105.793C131.752 105.14 131.474 104.506 131.198 103.899C126.297 93.1407 125.204 95.0272 122.727 91.1424C120.248 87.2565 123.135 80.9632 127.74 79.4538C132.345 77.9434 130.878 87.9499 132.492 90.0825C134.106 92.2129 151.518 114.953 151.518 114.953C151.741 115.049 154.218 112.697 156.795 110.166C159.731 107.279 162.797 104.158 162.797 104.158C162.797 104.158 164.131 103.951 165.585 103.935C166.857 103.922 168.22 104.052 168.867 104.593C169.064 104.756 168.943 105.392 168.571 106.363C166.31 112.282 154.769 130.738 148.686 132.093Z" fill="#FFAA8E"/>
<path opacity="0.7" d="M148.686 132.093C143.467 133.256 139.103 123.237 135.21 113.578C135.208 113.576 135.208 113.575 135.207 113.574C134.116 110.869 133.061 108.193 132.036 105.799C132.26 106.151 142.13 124.706 149.578 120.617C149.801 120.713 156.506 114.13 158.798 108.18C160.278 104.339 162.795 104.158 162.795 104.158C162.795 104.158 164.129 103.952 165.583 103.936C166.855 103.922 168.218 104.052 168.865 104.593C169.061 104.756 168.941 105.392 168.569 106.363C166.31 112.283 154.769 130.738 148.686 132.093Z" fill="#FF9270"/>
<path d="M175.8 83.0926C175.8 83.0926 162.195 102.931 160.824 104.212C159.453 105.494 171.145 111.746 173.047 110.501C174.948 109.257 182.915 96.7475 182.294 92.1341C181.671 87.5217 175.8 83.0926 175.8 83.0926Z" fill="#D2D7DB"/>
<path d="M158.323 107.918C158.323 107.918 160.532 107.274 163.068 108.104C173.241 111.434 175.261 121.325 173.972 123.132C173.972 123.132 174.051 127.963 177.813 125.904C181.575 123.845 182.014 122.574 182.323 121.374C182.632 120.174 178.543 108.883 173.636 105.963C168.73 103.041 164.426 99.8302 161.782 101.845C159.14 103.858 156.7 107.634 158.323 107.918Z" fill="#F3F3F7"/>
<path d="M187.904 76.3104C187.904 76.3104 184.813 72.938 181.764 70.5722C178.731 68.0167 174.97 64.2576 173.816 60.5571C171.785 54.0465 161.978 41.198 156.942 44.3723C156.942 44.3723 152.143 46.1896 149.448 50.4056C149.447 50.4067 149.447 50.4067 149.447 50.4067C148.857 51.3313 148.366 52.3699 148.05 53.531C146.291 59.9872 148.145 60.7989 144.4 64.0051C142.458 65.6669 144.699 67.3243 146.895 67.1944C149.09 67.0655 149.961 73.984 154.534 76.2625C159.106 78.541 166.557 76.8771 168.975 75.7001C168.975 75.7001 171.522 76.45 174.196 80.2048C176.309 83.1714 178.825 89.1355 179.001 92.1C179.178 95.0645 191.565 87.706 190.924 82.282C190.282 76.8558 187.904 76.3104 187.904 76.3104Z" fill="#FFAA8E"/>
<path d="M172.165 62.32C172.165 62.32 174.253 70.3484 178.449 67.4948L174.128 62.99L172.165 62.32Z" fill="#FA9373"/>
<path d="M168.359 56.7021C168.359 56.7021 166.527 55.7594 163.535 60.5486C163.535 60.5486 163.927 53.5118 166.071 53.3137C168.214 53.1166 168.359 56.7021 168.359 56.7021Z" fill="#FA9373"/>
<path d="M149.905 49.7377C149.905 49.7377 160.591 47.2611 163.479 49.7079C166.367 52.1536 157.321 43.2698 157.321 43.2698C157.321 43.2698 151.77 47.1141 149.905 49.7377Z" fill="#FA9373"/>
<path d="M169.212 55.6177C163.73 53.7493 163.986 64.0424 162.898 59.3992C161.81 54.7549 163.829 54.8188 162.576 50.3864C161.393 46.198 157.893 46.8137 157.509 46.8947C151.977 48.1655 145.448 47.815 143.872 45.3363C143.325 44.4777 143.373 43.3657 144.262 41.9745C145.3 40.3511 146.526 39.8984 147.713 39.7312C148.614 39.6033 149.527 39.6385 150.418 39.8132C150.639 39.8547 150.858 39.9059 151.076 39.9655C152.634 40.3916 154.991 41.0382 155.863 41.2768C156.077 41.3364 156.202 41.3695 156.202 41.3695C156.202 41.3695 168.869 39.5703 164.456 43.715C170.37 45.1328 173.295 57.0067 169.212 55.6177Z" fill="#434657"/>
<path d="M162.576 50.3855C162.576 50.3855 165.191 54.8093 166.369 55.85C166.369 55.85 167.447 55.3419 167.752 55.5805C168.057 55.818 162.084 49.1243 162.084 49.1243L162.576 50.3855Z" fill="#1B1D29"/>
<path d="M161.235 47.0865L159.015 46.7616C153.298 46.9181 150.91 41.2012 150.416 39.8121C150.638 39.8537 150.857 39.9048 151.075 39.9644C152.633 40.3905 154.99 41.0371 155.862 41.2757L161.235 47.0865Z" fill="#1B1D29"/>
<path d="M172.009 61.4049C172.009 61.4049 172.607 67.8792 177.643 66.6308C177.643 66.6308 174.8 63.0059 174.948 61.7969C175.098 60.5869 172.009 61.4049 172.009 61.4049Z" fill="#434657"/>
<path d="M172.165 62.32C172.165 62.32 174.737 67.1879 177.32 66.2037L176.355 64.8147L172.096 60.72C172.095 60.7211 171.879 61.3794 172.165 62.32Z" fill="#1B1D29"/>
<path d="M175.557 42.2845C174.337 41.2555 173.009 40.3543 171.621 39.6066C163.242 35.0954 154.537 42.2216 154.537 42.2216C156.318 46.1863 167.122 55.6614 170.457 58.5278C171.075 59.0583 171.437 59.364 171.437 59.364C171.885 60.0585 172.375 60.7594 172.897 61.4593C177.121 67.1294 183.377 72.7505 185.382 74.4985C185.992 75.0311 186.973 74.6785 187.065 73.8743C187.403 70.9098 179.75 64.2587 179.75 64.2587C179.772 64.2256 179.792 64.1926 179.812 64.1607C185.101 55.8275 181.683 47.4475 175.557 42.2845Z" fill="#9296A8"/>
<path d="M170.457 58.5278C176.349 49.8496 175.556 42.2845 175.556 42.2845C175.557 42.2856 175.557 42.2845 175.558 42.2856C181.683 47.4475 185.102 55.8286 179.813 64.1607C177.131 64.5537 174.647 63.0092 172.897 61.4593C172.897 61.4593 171.361 60.0234 170.457 58.5278Z" fill="white"/>
<path d="M168.974 75.699C168.974 75.699 171.807 73.4876 172.715 72.286C173.624 71.0845 172.942 76.2081 171.414 77.2371C171.416 77.2361 169.31 75.5466 168.974 75.699Z" fill="#FA9373"/>
<path d="M149.76 58.2743C149.76 58.2743 149.691 59.5089 150.316 59.494C150.941 59.479 150.444 57.7353 150.294 57.6352C149.931 57.3944 149.739 57.8663 149.76 58.2743Z" fill="#1B1D29"/>
<path d="M153.212 60.854C153.289 60.6754 153.206 60.4686 153.028 60.3922C152.849 60.3157 152.642 60.3985 152.566 60.577C152.489 60.7556 152.572 60.9624 152.75 61.0388C152.929 61.1153 153.136 61.0326 153.212 60.854Z" fill="#FA9373"/>
<path d="M154.345 61.6615C154.399 61.5354 154.34 61.3892 154.214 61.335C154.087 61.2807 153.94 61.339 153.886 61.4651C153.832 61.5912 153.891 61.7373 154.018 61.7916C154.144 61.8458 154.291 61.7875 154.345 61.6615Z" fill="#FA9373"/>
<path d="M151.56 61.8358C151.637 61.6572 151.554 61.4505 151.375 61.374C151.196 61.2975 150.99 61.3803 150.913 61.5588C150.836 61.7374 150.919 61.9442 151.098 62.0207C151.276 62.0972 151.483 62.0144 151.56 61.8358Z" fill="#FA9373"/>
<path d="M153.333 62.984C153.431 62.7562 153.325 62.4924 153.098 62.3948C152.87 62.2973 152.606 62.4029 152.508 62.6307C152.41 62.8585 152.516 63.1223 152.744 63.2198C152.972 63.3174 153.236 63.2118 153.333 62.984Z" fill="#FA9373"/>
<path d="M148.922 53.9155C148.887 53.6865 149.078 53.4809 149.29 53.384C149.962 53.0762 151.679 52.4786 152.472 53.9432C153.13 55.1586 152.462 55.4452 152.231 54.773C152.118 54.4449 151.733 53.8612 151.348 53.6684C150.399 53.1944 149.005 54.463 148.922 53.9155Z" fill="#1B1D29"/>
<path d="M151.138 70.4273C151.332 70.3591 151.535 70.308 151.74 70.2643C151.943 70.2175 152.151 70.1812 152.362 70.1546C152.784 70.1013 153.22 70.0886 153.668 70.1269C154.115 70.1589 154.575 70.2451 155.047 70.4081C155.517 70.5754 155.997 70.8204 156.468 71.1697L156.477 71.1133C156.257 70.8246 156.01 70.5935 155.759 70.3815C155.506 70.1855 155.247 70.0119 154.99 69.8798C154.475 69.6177 153.969 69.4814 153.495 69.443C153.021 69.4058 152.576 69.4633 152.17 69.6082C151.768 69.7605 151.393 69.9778 151.107 70.3623L151.138 70.4273Z" fill="#1B1D29"/>
<path d="M244.475 146.527C235.525 157.718 208.745 158.602 208.745 158.602C208.745 158.602 207.297 156.603 205.023 153.47C199.995 146.543 190.931 134.079 184.565 125.439C180.908 120.475 178.141 116.776 177.538 116.11C175.412 113.763 165.169 103.976 165.169 103.976C165.169 103.976 174.42 85.9186 179.705 80.9334C184.976 75.9653 185.705 74.2748 185.71 74.2652C185.71 74.2652 191.804 75.0684 197.929 78.9777C203.949 82.8167 241.262 112.538 246.763 134.24C246.862 134.631 246.951 135.019 247.029 135.405C247.948 139.937 246.827 143.588 244.475 146.527Z" fill="white"/>
<path d="M251.063 141.797C250.922 140.59 241.047 124.489 238.628 121.003C232.571 112.281 222.514 103.618 222.289 103.345C222.499 103.711 235.588 129.206 232.013 136.268C229.127 141.967 220.564 143.785 208.738 135.881C199.338 129.6 201.369 122.894 199.834 118.581C198.839 112.968 197.005 109.541 191.099 110.103C185.193 110.665 172.435 105.327 172.435 105.327C172.435 105.327 179.693 115.118 183.84 122.365C184.227 123.04 184.689 123.606 185.209 124.071C184.93 124.46 184.717 124.918 184.566 125.44C190.933 134.08 199.995 146.544 205.024 153.471C206.001 153.663 206.997 153.768 208.011 153.774C219.136 153.853 235.458 150.204 244.476 146.528C248.618 144.836 251.22 143.139 251.063 141.797Z" fill="#E4E5F0"/>
<path d="M228.126 109.708C228.126 109.708 241.932 132.023 238.146 137.447C234.36 142.871 227.804 144.045 227.804 144.045C227.804 144.045 239.113 146.681 242.161 143.166C245.209 139.651 248.307 144.157 246.584 136.445C244.86 128.732 228.126 109.708 228.126 109.708Z" fill="#434657"/>
<path d="M196.453 112.101C196.453 112.101 194.646 117.787 193.355 122.675C191.16 130.984 200.783 145.156 208.956 149.174C208.956 149.174 206.92 151.02 201.707 148.905C196.493 146.791 184.943 124.45 184.943 124.45C184.943 124.45 195.175 114.123 196.453 112.101Z" fill="#434657"/>
<path d="M121.707 90.8228C121.542 90.9751 121.283 90.9655 121.131 90.8004L119.12 88.6295C118.967 88.4644 118.977 88.2055 119.142 88.0532L134.055 74.2673C134.22 74.115 134.479 74.1246 134.632 74.2897L136.642 76.4606C136.795 76.6257 136.785 76.8845 136.62 77.0369L121.707 90.8228Z" fill="#7E7E80"/>
<path d="M136.377 77.1755L135.137 75.8365L133.897 74.4975C133.71 74.2941 133.389 74.2824 133.186 74.4698L116.034 90.3265C115.83 90.514 115.818 90.8347 116.006 91.037L118.486 93.7139C118.674 93.9174 118.994 93.9291 119.197 93.7416L136.349 77.8849C136.553 77.6985 136.566 77.3789 136.377 77.1755Z" fill="#1B1D29"/>
<path d="M119.994 93.0076C119.994 93.0076 120 93.0246 120.011 93.0566C120.023 93.0896 120.039 93.1386 120.055 93.1951C120.091 93.3133 120.126 93.4677 120.156 93.6499C120.165 93.733 120.182 93.8342 120.185 93.9268C120.191 94.0238 120.189 94.1175 120.184 94.2155C120.176 94.3103 120.161 94.4051 120.145 94.5042C120.131 94.6043 120.115 94.7087 120.097 94.8174C120.059 95.0315 120.022 95.2669 119.97 95.5023C119.946 95.6226 119.917 95.7419 119.886 95.8623C119.858 95.9848 119.823 96.1041 119.787 96.2255C119.717 96.4684 119.635 96.7091 119.547 96.9488C119.505 97.0703 119.458 97.1874 119.411 97.3078C119.366 97.4282 119.318 97.5464 119.268 97.6636L119.196 97.8393L119.118 98.0098C119.067 98.1237 119.013 98.2356 118.958 98.3421C118.847 98.5573 118.725 98.7554 118.605 98.9439C118.543 99.0366 118.481 99.1271 118.422 99.2156C118.36 99.3018 118.299 99.3871 118.24 99.4691C118.122 99.6331 118.013 99.7918 117.905 99.9303C117.688 100.206 117.474 100.4 117.311 100.52C117.148 100.642 117.035 100.69 117.035 100.69L108.933 91.9434C108.933 91.9434 108.99 91.8337 109.123 91.6814C109.256 91.528 109.466 91.3299 109.759 91.135C109.905 91.038 110.071 90.9411 110.245 90.8367C110.332 90.7845 110.421 90.7313 110.512 90.6759C110.605 90.6237 110.701 90.5693 110.798 90.515C110.995 90.4096 111.202 90.3041 111.426 90.2104C111.537 90.1624 111.652 90.1188 111.769 90.0762L111.945 90.0122L112.126 89.9537C112.247 89.9142 112.368 89.8748 112.492 89.8397C112.615 89.8024 112.736 89.7651 112.861 89.7321C113.107 89.6629 113.353 89.6 113.601 89.5489C113.724 89.5233 113.846 89.4978 113.971 89.4786C114.093 89.4573 114.214 89.4381 114.336 89.4243C114.575 89.3902 114.813 89.371 115.029 89.3497C115.14 89.3412 115.246 89.3337 115.346 89.3263C115.446 89.3177 115.541 89.3113 115.637 89.3113C115.735 89.3135 115.829 89.3188 115.925 89.3326C116.018 89.3433 116.117 89.3678 116.199 89.3827C116.378 89.4274 116.529 89.4733 116.644 89.5191C116.7 89.5393 116.747 89.5595 116.78 89.5734C116.812 89.5872 116.828 89.5936 116.828 89.5936L119.994 93.0076Z" fill="#5A5A5C"/>
<path d="M120.739 92.5165C120.739 92.5165 120.746 92.5346 120.757 92.5687C120.77 92.6038 120.787 92.656 120.804 92.7157C120.843 92.8413 120.88 93.0054 120.912 93.1982C120.921 93.2866 120.939 93.3931 120.942 93.4933C120.948 93.5955 120.946 93.6967 120.941 93.8C120.932 93.9012 120.917 94.0024 120.9 94.1068C120.884 94.2123 120.867 94.3241 120.849 94.4402C120.809 94.6671 120.768 94.9174 120.713 95.1678C120.687 95.2956 120.656 95.4223 120.624 95.5502C120.594 95.6801 120.557 95.8069 120.52 95.9358C120.445 96.1946 120.358 96.4492 120.264 96.7038C120.219 96.8327 120.169 96.9573 120.12 97.0851C120.072 97.213 120.021 97.3387 119.969 97.4622L119.891 97.6497L119.808 97.8308C119.753 97.9522 119.697 98.0704 119.637 98.1834C119.52 98.4124 119.39 98.6222 119.263 98.8225C119.197 98.9205 119.132 99.0174 119.069 99.1112C119.003 99.2028 118.939 99.2933 118.877 99.3806C118.751 99.5553 118.636 99.7236 118.521 99.8706C118.291 100.164 118.062 100.369 117.89 100.498C117.717 100.627 117.596 100.677 117.596 100.677L108.99 91.3841C108.99 91.3841 109.05 91.268 109.191 91.1061C109.333 90.9431 109.556 90.7322 109.866 90.5256C110.021 90.4223 110.199 90.32 110.382 90.2082C110.475 90.1528 110.57 90.0952 110.667 90.0377C110.766 89.9813 110.867 89.9248 110.97 89.8662C111.18 89.7544 111.399 89.6415 111.637 89.5424C111.754 89.4923 111.877 89.4444 112.002 89.3997L112.188 89.3315L112.381 89.2686C112.509 89.226 112.638 89.1856 112.769 89.1472C112.9 89.1078 113.028 89.0684 113.16 89.0332C113.422 88.9597 113.683 88.8926 113.947 88.8383C114.078 88.8106 114.207 88.784 114.34 88.7637C114.47 88.7414 114.599 88.7201 114.728 88.7051C114.981 88.6689 115.234 88.6476 115.464 88.6253C115.582 88.6167 115.693 88.6082 115.801 88.5997C115.908 88.5912 116.009 88.5837 116.111 88.5837C116.215 88.5858 116.316 88.5912 116.417 88.6061C116.517 88.6178 116.621 88.6434 116.708 88.6593C116.898 88.7062 117.059 88.7563 117.182 88.8042C117.24 88.8255 117.291 88.8468 117.325 88.8617C117.359 88.8766 117.376 88.8841 117.376 88.8841L120.739 92.5165Z" fill="#1B1D29"/>
<path d="M129.828 81.5384C129.828 81.5384 127.701 82.594 128.317 84.5721C128.933 86.5513 131.45 84.7841 131.86 83.8297C132.268 82.8763 132.041 81.0644 129.828 81.5384Z" fill="#FFAA8E"/>
<path d="M128.485 80.3923C129.005 79.277 126.963 75.6414 124.735 75.2729C122.507 74.9043 122.608 77.4992 122.608 77.4992C122.608 77.4992 123.014 78.1372 123.561 78.9276C123.561 78.9276 121.913 77.4619 120.742 78.9223C119.909 79.9619 120.095 81.1017 121.104 82.1637C120.242 82.2905 119.499 82.9743 119.179 84.2291C119.078 84.619 119.249 84.9929 119.567 85.338C119.111 85.6789 118.084 86.5523 118.542 87.1776C119.123 87.9701 119.947 88.7818 120.851 87.7486C121.237 87.3076 121.563 86.9859 121.762 86.7175C122.628 87.0977 123.378 87.3246 123.378 87.3246C123.782 87.4578 124.07 86.4916 124.075 85.6991C124.077 85.3263 123.9 84.6179 123.584 83.9341C124.972 84.815 124.892 84.9023 125.46 84.3261C125.995 83.7839 126.511 82.969 126.306 81.9602C127.159 82.1562 128.009 81.4127 128.485 80.3923Z" fill="#FFAA8E"/>
<path d="M123.577 78.9052C123.877 79.0821 124.162 79.2802 124.442 79.4868C124.582 79.5912 124.718 79.6988 124.854 79.8085L125.054 79.9779L125.25 80.1526C125.506 80.3912 125.798 80.6074 125.981 80.9195C126.03 80.993 126.071 81.0761 126.112 81.156C126.154 81.2359 126.191 81.3179 126.22 81.4063C126.249 81.4937 126.281 81.5768 126.297 81.6705C126.313 81.7632 126.328 81.8537 126.33 81.9475L126.281 81.9698C126.001 81.7259 125.775 81.4926 125.548 81.2476C125.491 81.1869 125.438 81.1251 125.386 81.0591C125.334 80.9952 125.284 80.9281 125.236 80.8599C125.19 80.7896 125.14 80.7214 125.091 80.6532C125.041 80.5851 124.991 80.5169 124.937 80.453L124.773 80.2591L124.605 80.0684C124.493 79.9406 124.379 79.8128 124.262 79.6892C124.03 79.4378 123.791 79.1918 123.545 78.9489L123.577 78.9052Z" fill="#F98A69"/>
<path d="M121.117 82.1392C121.359 82.2308 121.593 82.3384 121.827 82.4492C121.942 82.5067 122.057 82.5642 122.172 82.6239C122.285 82.6856 122.398 82.7485 122.51 82.8124C122.622 82.8774 122.739 82.9349 122.855 82.9978C122.969 83.0606 123.073 83.1384 123.165 83.231C123.256 83.3237 123.342 83.4249 123.416 83.5368C123.492 83.6475 123.556 83.7711 123.601 83.9128L123.565 83.9533C123.275 83.8968 123.049 83.7839 122.83 83.6582C122.722 83.5943 122.624 83.5176 122.534 83.4292C122.444 83.3397 122.356 83.2491 122.26 83.1671L121.68 82.6771L121.09 82.1871L121.117 82.1392Z" fill="#F98A69"/>
<path d="M119.579 85.3146C119.785 85.3935 119.986 85.4808 120.186 85.5671L120.485 85.7013L120.779 85.843C120.877 85.8909 120.979 85.9303 121.081 85.9719C121.182 86.0145 121.273 86.0709 121.357 86.1423C121.44 86.2137 121.518 86.2925 121.589 86.382C121.659 86.4725 121.726 86.5705 121.776 86.693L121.747 86.7388C121.614 86.7473 121.497 86.7303 121.384 86.7058C121.272 86.6802 121.168 86.6451 121.068 86.6003C120.968 86.5567 120.877 86.4981 120.795 86.4256C120.713 86.3521 120.633 86.2765 120.547 86.2094L120.293 86.006L120.042 85.7961C119.877 85.6534 119.712 85.5106 119.551 85.3594L119.579 85.3146Z" fill="#F98A69"/>
<path d="M181.505 120.124C179.012 125.03 164.604 132.494 159.794 137.239C156.313 140.672 140.355 150.263 132.474 155.116C132.472 155.117 132.472 155.117 132.472 155.117C130.037 156.615 128.374 157.664 128.087 157.937C127.073 158.907 129.916 165.605 129.874 168.404C129.865 168.956 129.747 169.355 129.463 169.531C127.744 170.602 121.619 172.135 119.341 171.077C117.061 170.017 115.276 170.261 115.255 168.74C115.235 167.218 119.909 166.028 120.279 165.262C120.65 164.497 119.192 161.816 117.504 160.462C116.098 159.335 114.054 160.845 112.577 161.852V161.853C112.28 162.055 112.006 162.238 111.764 162.373C110.325 163.183 108.837 162.043 109.74 161.506C110.643 160.968 110.75 159.838 110.75 159.838C112.473 155.379 117.098 155.184 122.554 151.944C128.011 148.705 151.585 123.737 155.535 120.042C159.485 116.346 163.56 110.153 163.56 110.153C167.85 104.073 172.736 105.005 176.378 108.16C180.315 111.57 182.798 117.574 181.505 120.124Z" fill="#FFAA8E"/>
<path opacity="0.7" d="M181.505 120.123C179.013 125.03 164.604 132.494 159.794 137.239C156.313 140.672 140.355 150.262 132.474 155.116C132.713 154.918 164.95 131.872 171.015 125.933C177.103 119.971 165.977 109.952 165.977 109.952C165.977 109.952 170.562 108.764 176.377 108.16C180.315 111.57 182.798 117.574 181.505 120.123Z" fill="#FA9373"/>
<path d="M129.463 169.53C127.744 170.6 121.619 172.134 119.341 171.076C117.061 170.016 115.276 170.26 115.255 168.738C115.235 167.217 119.909 166.026 120.279 165.261C120.65 164.496 119.192 161.815 117.504 160.461C116.098 159.334 114.054 160.844 112.577 161.851C112.577 161.851 115.408 157.506 118.036 159.513C120.665 161.521 120.706 164.756 121.528 165.683C122.247 166.495 127.088 168.051 129.875 168.404C129.865 168.955 129.746 169.354 129.463 169.53Z" fill="#FA9373"/>
<path d="M128.648 84.9641C128.234 85.4296 127.868 85.926 127.561 86.4512C127.487 86.5843 127.413 86.7164 127.347 86.8528C127.275 86.9859 127.221 87.1265 127.162 87.265C127.13 87.3332 127.11 87.4056 127.084 87.4759C127.06 87.5473 127.03 87.6165 127.011 87.6879L126.954 87.9041L126.925 88.0128L126.907 88.1225L126.866 88.3419C126.853 88.4154 126.852 88.49 126.845 88.5635C126.841 88.6381 126.83 88.7105 126.83 88.7861C126.83 88.8618 126.831 88.9374 126.83 89.013L126.829 89.127L126.834 89.2399L126.845 89.4668L126.868 89.6916C126.874 89.7672 126.885 89.8418 126.897 89.9163C126.944 90.2135 127.014 90.5097 127.127 90.7898C127.239 91.07 127.383 91.3437 127.6 91.5685C127.334 91.397 127.14 91.1328 126.983 90.858C126.829 90.5789 126.72 90.2753 126.649 89.9653C126.606 89.8109 126.587 89.6532 126.561 89.4956L126.539 89.258L126.527 89.1387L126.523 89.0194C126.52 88.9406 126.519 88.8607 126.518 88.7819C126.517 88.702 126.526 88.621 126.529 88.5401C126.536 88.4591 126.536 88.3782 126.549 88.2983L126.589 88.0597L126.611 87.9404L126.643 87.8242L126.709 87.592C126.732 87.5153 126.764 87.4418 126.792 87.3662C126.821 87.2916 126.844 87.2139 126.881 87.1436C126.951 86.9998 127.015 86.8538 127.099 86.7175C127.139 86.6493 127.174 86.5779 127.218 86.5119L127.35 86.3138C127.706 85.7961 128.141 85.3306 128.648 84.9641Z" fill="#F98A69"/>
<path d="M173.945 88.5603C174.964 88.9577 179.685 83.6945 188.062 84.5125C194.406 85.1325 209.569 92.1597 220.712 101.918C220.712 101.919 220.712 101.919 220.712 101.919C224.279 105.043 227.434 108.447 229.756 112.011C239.33 126.708 244.287 138.13 241.396 140.72C238.869 142.985 226.918 143.309 216.403 146.884C216.4 146.884 216.399 146.885 216.399 146.885C214.888 147.399 213.41 147.979 211.991 148.641C200.692 153.922 182.398 119.659 182.398 119.659L180.722 123.886C180.722 123.886 184.632 133.918 190.134 142.634C195.636 151.348 204.581 165.674 206.267 168.207C207.319 169.786 208.895 172.464 210.731 175.835H267.272C263.884 164.464 259.9 153.148 255.84 143.108C255.84 143.108 253.311 137.995 246.055 127.143C241.225 119.919 230.83 106.47 219.05 96.3236L219.049 96.3214C213.137 91.2287 206.876 86.9668 200.795 84.7416C182.597 78.0808 175.472 85.3786 175.472 85.3786C175.472 85.3786 172.926 88.163 173.945 88.5603Z" fill="#82869E"/>
<path d="M241.397 140.719C238.869 142.984 226.918 143.308 216.403 146.883C216.727 146.841 235.044 144.47 237.631 150.457C238.417 152.276 240.754 162.393 243.441 175.834H270.001C266.295 164.237 261.465 152.803 255.841 143.106C255.841 143.106 253.312 137.993 246.056 127.142C241.226 119.918 230.831 106.469 219.051 96.3225C219.843 97.7222 220.379 99.6406 220.712 101.917C220.712 101.918 220.712 101.918 220.712 101.918C224.279 105.042 227.434 108.446 229.756 112.01C239.329 126.706 244.286 138.13 241.397 140.719Z" fill="#61667C"/>
<path d="M181.199 128.037C180.766 128.273 180.384 128.418 180.043 128.491C177.42 129.051 177.358 125.264 177.358 125.264C178.647 123.458 176.627 113.567 166.454 110.237C163.918 109.406 161.709 110.051 161.709 110.051C161.284 109.976 161.137 109.663 161.199 109.206C161.373 107.913 163.216 105.464 165.169 103.976C167.812 101.963 172.116 105.173 177.022 108.094C181.929 111.017 186.018 122.305 185.709 123.507C185.4 124.707 184.963 125.978 181.199 128.037Z" fill="white"/>
<path opacity="0.5" d="M180.043 128.491C177.42 129.051 177.358 125.264 177.358 125.264C178.647 123.458 176.627 113.567 166.454 110.237C163.918 109.406 161.709 110.051 161.709 110.051C161.284 109.976 161.137 109.663 161.199 109.206L161.2 109.207C161.2 109.207 165.756 107.237 170.927 110.34C176.098 113.441 182.981 124.987 180.043 128.491Z" fill="#D2D7DB"/>
<path d="M91.2681 25.7525C91.3672 25.9561 91.4727 26.1576 91.5836 26.3569C91.4727 26.1576 91.3672 25.9561 91.2681 25.7525Z" fill="#F3F3F7"/>
<path d="M79.0281 35.5609C78.2274 34.4861 78.4492 32.9671 79.5249 32.1671L88.0462 25.8249C89.1219 25.0249 90.6422 25.2465 91.4429 26.3213C92.2435 27.396 92.0217 28.915 90.946 29.715L82.4247 36.0573C81.349 36.8572 79.8287 36.6346 79.0281 35.5609Z" fill="#82869E"/>
<path d="M106.272 31.9775C107.749 31.2287 109.081 30.1986 110.207 28.9172C114.996 23.4654 114.454 15.1355 108.996 10.3495C108.677 10.0694 108.348 9.80734 108.009 9.56128C107.051 8.86783 106.015 8.31392 104.927 7.90701C103.204 7.2615 101.347 6.98348 99.4545 7.10704C96.1155 7.32434 93.0504 8.76344 90.7605 11.1761C90.6432 11.3008 90.527 11.4275 90.4118 11.5564C88.5685 13.657 87.5152 16.1805 87.2263 18.7668C86.9619 21.155 87.35 23.5965 88.3756 25.7982C88.4587 25.9783 88.5462 26.1583 88.6389 26.333C88.8116 26.6653 89.0003 26.9913 89.205 27.3098C89.2658 27.4056 89.3287 27.5004 89.3916 27.5952C89.4545 27.689 89.5195 27.7827 89.5856 27.8743C89.7732 28.1385 89.9705 28.3963 90.1805 28.6477C90.5259 29.0631 90.9033 29.4615 91.3095 29.8407C91.4108 29.9387 91.5174 30.0324 91.624 30.1262C91.6634 30.1603 91.7018 30.1943 91.7423 30.2274C92.3276 30.7312 92.947 31.1754 93.5984 31.5621C95.8639 32.9096 98.479 33.5434 101.167 33.3687C102.973 33.2504 104.702 32.7732 106.272 31.9775ZM95.1965 28.3824C94.7658 28.1108 94.3532 27.804 93.963 27.461C93.9588 27.4578 93.9556 27.4546 93.9513 27.4514C92.027 25.7599 90.8756 23.4196 90.7093 20.8621C90.543 18.3301 91.3628 15.8875 93.0185 13.968C93.0366 13.9446 93.059 13.9212 93.0792 13.8977C94.7733 11.9686 97.1198 10.8129 99.6837 10.6467C100.983 10.5626 102.259 10.7362 103.455 11.1495C104.3 11.4435 105.104 11.8536 105.847 12.3777C106.126 12.5726 106.395 12.7867 106.655 13.0136C109.105 15.1643 110.201 18.2949 109.864 21.3126C109.654 23.2002 108.883 25.0451 107.538 26.579C106.609 27.6347 105.487 28.4591 104.238 29.0162C103.207 29.4764 102.092 29.7534 100.933 29.829C98.8874 29.9611 96.898 29.453 95.1965 28.3824Z" fill="#BCBFD6"/>
<path d="M93.3373 19.0704C93.1997 18.852 93.1848 18.6155 93.2925 18.3599C93.4002 18.1042 93.5675 17.905 93.7968 17.7612C94.607 17.2521 96.7648 17.8028 100.269 19.4123C100.261 19.2142 100.249 18.918 100.232 18.5228C100.22 17.8347 100.192 16.7887 100.149 15.3826C100.11 15.0449 100.061 14.54 100 13.8679C99.9844 13.4727 100.132 13.1776 100.443 12.9816C101.222 12.4927 101.72 12.4192 101.935 12.7622C102.092 13.0115 102.094 13.5675 101.941 14.4314C101.89 14.6956 101.839 15.6926 101.79 17.4257C101.741 19.1577 101.74 20.0599 101.786 20.1324C101.845 20.2261 102.723 20.6085 104.421 21.2807C106.119 21.9528 107.058 22.4343 107.241 22.7251C107.392 22.9637 107.432 23.2066 107.362 23.4526C107.293 23.6987 107.133 23.9011 106.883 24.0566C106.395 24.3634 105.816 24.3772 105.149 24.0981C104.713 23.9352 104.111 23.5709 103.343 23.0063C102.574 22.4417 102.053 22.0998 101.775 21.9837C101.706 23.6263 101.72 24.9844 101.815 26.0581C101.894 26.9678 101.731 27.5505 101.326 27.804C101.118 27.934 100.894 27.9585 100.655 27.8775C100.415 27.7955 100.217 27.6527 100.059 27.4482L100.184 21.1805C99.3586 20.7427 98.3778 20.2794 97.2445 19.7894C95.6326 19.0927 94.7072 18.819 94.4684 18.9692C94.4066 19.0086 94.3277 19.0682 94.2339 19.1492C94.14 19.2301 94.0665 19.2866 94.0142 19.3196C93.7648 19.4751 93.5388 19.3921 93.3373 19.0704Z" fill="#BCBFD6"/>
</g>
<defs>
<linearGradient id="paint0_linear_1_44220" x1="112.294" y1="95.04" x2="11.4909" y2="152.313" gradientUnits="userSpaceOnUse">
<stop stop-color="white"/>
<stop offset="1" stop-color="white" stop-opacity="0"/>
</linearGradient>
<clipPath id="clip0_1_44220">
<rect width="270" height="176" fill="white"/>
</clipPath>
</defs>
</svg>
